HIERARCHY
ROOT Hips
{
  OFFSET 3.56379 102.185 95.2879
  CHANNELS 6 Xposition Yposition Zposition Zrotation Xrotation Yrotation
  JOINT RightUpLeg
  {
    OFFSET -8.9458 -8.66707 0.101652
    CHANNELS 3 Zrotation Xrotation Yrotation
    JOINT RightLeg
    {
      OFFSET 0 -44.4227 1.3727
      CHANNELS 3 Zrotation Xrotation Yrotation
      JOINT RightFoot
      {
        OFFSET 0.253549 -42.0924 -1.46059
        CHANNELS 3 Zrotation Xrotation Yrotation
        JOINT RightToes
        {
          OFFSET 0.04 -4.41509 8.4991
          CHANNELS 3 Zrotation Xrotation Yrotation
          End Site
          {
            OFFSET -0.08 -0.137448 9.77979
          }
        }
      }
    }
  }
  JOINT Spine
  {
    OFFSET 0 11.8905 0
    CHANNELS 3 Zrotation Xrotation Yrotation
    JOINT Spine1
    {
      OFFSET 0 25.6574 0.127663
      CHANNELS 3 Zrotation Xrotation Yrotation
      JOINT HEad
      {
        OFFSET 0 8.73416 0.011341
        CHANNELS 3 Zrotation Xrotation Yrotation
        End Site
        {
          OFFSET -0.29 12.7742 2.51395
        }
      }
      JOINT LeftShoulder1
      {
        OFFSET 8.99 -0.362252 -0.22
        CHANNELS 3 Zrotation Xrotation Yrotation
        JOINT LeftArm
        {
          OFFSET 10.2827 -0.00338 0.322123
          CHANNELS 3 Zrotation Xrotation Yrotation
          JOINT LeftForeArm
          {
            OFFSET 32.7669 0.099144 -1.42434
            CHANNELS 3 Zrotation Xrotation Yrotation
            JOINT LeftHand
            {
              OFFSET 27.5643 0.085362 1.02216
              CHANNELS 3 Zrotation Xrotation Yrotation
              End Site
              {
                OFFSET 16.7443 -0.6 1.50291
              }
            }
          }
        }
      }
      JOINT RightShoulder
      {
        OFFSET -8.99 -0.362252 -0.22
        CHANNELS 3 Zrotation Xrotation Yrotation
        JOINT RightArm
        {
          OFFSET -10.2827 -0.00338 0.322123
          CHANNELS 3 Zrotation Xrotation Yrotation
          JOINT RightForeArm
          {
            OFFSET -32.8971 0.099144 -1.42434
            CHANNELS 3 Zrotation Xrotation Yrotation
            JOINT RightHand
            {
              OFFSET -27.4921 0.085362 1.02216
              CHANNELS 3 Zrotation Xrotation Yrotation
              End Site
              {
                OFFSET -16.6312 -0.6 1.50291
              }
            }
          }
        }
      }
    }
  }
  JOINT LeftUpLeg
  {
    OFFSET 8.9458 -8.66707 0.101652
    CHANNELS 3 Zrotation Xrotation Yrotation
    JOINT LeftLeg
    {
      OFFSET 0 -44.4227 1.3727
      CHANNELS 3 Zrotation Xrotation Yrotation
      JOINT LeftFoot
      {
        OFFSET -0.253549 -42.0924 -1.46059
        CHANNELS 3 Zrotation Xrotation Yrotation
        JOINT LeftToes
        {
          OFFSET -0.04 -4.41509 8.4991
          CHANNELS 3 Zrotation Xrotation Yrotation
          End Site
          {
            OFFSET 0.08 -0.047448 9.77979
          }
        }
      }
    }
  }
}
MOTION
Frames:	8
Frame Time:	0.0166667
9.98775 101.278 39.2764 -0.504611 2.26171 -173.874 3.54894 -16.193 0.275698 0.497886 17.8278 -3.71951 3.37727 0.000959013 -0.233873 12.9284 -9.94948 -25.0373 -5.88607 3.13768 0.0664569 -2.79647 -1.68059 -0.241012 7.00958 -10.444 -4.24587 1.73937e-016 0 1.59028e-015 -88.8749 -10.8807 -31.5444 -19.2233 15.5388 -18.4371 0.368473 9.90896 -0.00117926 8.44441 -0.464108 -6.41636 68.8308 -33.4156 1.99379 20.6886 12.4536 3.38865 -0.369625 9.91382 0.00119887 6.38699 -1.82528 7.79496 2.83268 53.6361 3.30519 -1.45161 17.6495 0.320422 35.6664 8.35197 -57.8899 
10.3233 101.432 37.5038 -0.139208 2.38881 -173.563 4.25789 -14.994 0.202617 0.524452 17.9545 -3.95077 3.13959 -1.06399 -0.201965 12.8741 -10.0738 -24.8804 -5.69115 3.16455 0.1437 -2.63609 -1.03374 -0.216733 7.66496 -11.4707 -4.60058 2.75814e-015 3.97569e-016 -0 -89.0248 -11.3125 -30.7041 -19.1737 15.3738 -17.5478 0.368473 9.90896 -0.00117926 8.46591 -0.461322 -6.39473 69.9231 -32.5247 3.59209 20.8679 12.5981 4.25686 -0.369625 9.91382 0.00119887 7.08104 -4.63736 7.61141 3.78718 57.3519 3.55715 -0.0818638 21.9845 0.0637158 36.7589 13.8184 -54.0955 
10.631 101.65 35.7852 0.00211942 2.43893 -173.275 4.68566 -13.6575 0.533334 0.691621 17.5963 -4.61402 2.94259 -1.84021 -0.181456 12.7998 -10.4813 -24.6176 -5.58513 3.15862 0.159524 -2.75929 -0.429951 -0.203617 8.39008 -12.4303 -4.90123 -1.93815e-015 -9.93923e-017 -0 -89.0383 -11.9115 -29.9366 -19.2159 15.1582 -16.352 0.368473 9.90896 -0.00117926 8.52767 -0.433037 -6.20878 71.0273 -31.5357 5.29834 21.0612 12.7579 5.19457 -0.369625 9.91382 0.00119887 7.33131 -7.59071 6.89189 3.79548 60.9192 5.44667 0.952286 24.1885 -0.173293 36.3365 20.3583 -48.9732 
10.888 101.928 34.1409 -0.11673 2.31012 -172.94 4.73568 -12.3962 1.23402 1.02109 16.9772 -5.73164 2.89669 -2.59404 -0.165581 12.7015 -10.3422 -24.3888 -5.58768 3.18189 0.0972376 -3.24531 -0.00597657 -0.201752 9.11484 -13.2495 -5.18615 -6.36732e-016 2.23633e-016 1.59028e-015 -88.9301 -12.6139 -29.2934 -19.2453 14.8787 -14.8185 0.368473 9.90896 -0.00117926 8.7544 -0.395497 -5.95293 71.9444 -30.3736 7.05577 21.3562 12.9258 6.17567 -0.369625 9.91382 0.00119887 7.18127 -10.8097 5.86492 3.01443 64.4647 9.41599 0.720654 22.309 -0.102991 34.2999 25.7374 -42.5415 
11.0929 102.218 32.5153 -0.376107 2.14198 -172.715 4.57276 -11.1342 1.92193 1.32404 16.2805 -6.71605 2.93607 -3.30607 -0.152011 12.603 -10.1325 -24.1765 -5.5816 3.22249 -0.00878934 -3.8476 0.346931 -0.201457 9.76609 -13.8836 -5.32414 -3.40729e-015 2.48481e-016 7.95139e-016 -88.7117 -13.506 -28.6627 -19.3776 14.5334 -12.9477 0.368473 9.90896 -0.00117926 8.84809 -0.326544 -5.50775 72.909 -29.176 8.84829 21.6243 13.1008 7.16777 -0.369625 9.91382 0.00119887 6.68858 -13.9283 4.82779 0.831934 67.3306 14.5824 0.221045 18.775 0.0245633 30.1558 29.5155 -34.6682 
11.2323 102.467 30.8388 -0.698214 2.04883 -172.772 4.36262 -9.85744 2.14811 1.44695 15.8118 -6.81822 3.03034 -4.0654 -0.135872 12.5898 -10.1289 -24.1463 -5.44185 3.29497 -0.138282 -4.36323 0.671528 -0.193019 10.2611 -14.2061 -5.1578 -8.69683e-016 -2.98177e-016 -1.59028e-015 -88.3411 -14.6945 -27.9348 -19.7548 14.0979 -10.6215 0.368473 9.90896 -0.00117926 8.53828 -0.196608 -4.73884 74.1288 -28.0743 10.6574 21.7579 13.272 8.07721 -0.369625 9.91382 0.00119887 6.05134 -16.5527 4.21743 -1.88482 69.0676 18.633 0.32534 15.3718 0.0222575 23.8755 30.5529 -25.5074 
11.3188 102.679 29.1729 -1.00735 2.00307 -172.991 4.1631 -8.60191 2.1111 1.47297 15.4512 -6.59067 3.18524 -4.81286 -0.118051 12.4866 -10.1071 -23.8846 -5.21126 3.38202 -0.265667 -4.742 1.02904 -0.176676 10.5709 -14.3897 -4.79991 -7.20594e-016 3.97569e-016 -0 -87.958 -16.0674 -27.1589 -20.1776 13.6199 -8.16703 0.368473 9.90896 -0.00117926 7.85938 -0.0434635 -3.78568 75.5681 -27.0134 12.4725 21.7858 13.4648 9.06107 -0.369625 9.91382 0.00119887 5.34884 -18.8644 3.90153 -4.27431 69.9337 21.5861 0.440365 12.0782 0.00590767 17.4635 28.516 -17.0034 
11.3545 102.844 27.5691 -1.18373 2.03738 -173.311 4.08484 -7.40528 1.68542 1.35939 15.1944 -6.32695 3.47645 -5.56842 -0.0939287 11.9634 -9.66652 -22.64 -4.87782 3.47023 -0.350623 -4.81784 1.55864 -0.144737 10.5927 -14.6024 -4.28006 -3.18055e-015 0 -0 -87.7499 -17.5311 -26.3976 -20.5012 13.1604 -5.86013 0.368473 9.90896 -0.00117926 6.65308 0.110197 -2.70485 77.3455 -25.983 14.2821 21.6737 13.7074 10.299 -0.369625 9.91382 0.00119887 4.70844 -20.9046 3.93267 -5.39456 69.9756 22.8824 0.181727 9.67964 0.0393237 12.2226 23.1555 -11.502 
